<svg xmlns="http://www.w3.org/2000/svg" fill="none" viewBox="0 0 14 13"><path fill="#fff" d="M13.6 9.6L11 7.5a.4.4 0 00-.7.3V9h-.7C9 9 8.4 8.8 8 8.3L5.3 3.8c-.6-1-1.7-1.6-2.9-1.6H0V4h2.4c.6 0 1.2.3 1.5.8l2.8 4.5c.6 1 1.7 1.6 2.9 1.6h.7V12a.4.4 0 00.7.3l2.6-2.1a.4.4 0 000-.7z"/><path fill="#fff" d="M13.6 2.7L11 .6a.4.4 0 00-.7.3v1.3h-.7c-1.2 0-2.3.6-3 1.6v.3l1 1.6.5-1c.3-.5.9-.8 1.5-.8h.7v1.3a.4.4 0 00.7.3l2.6-2.1a.4.4 0 000-.7zM4.5 7.3l-.6 1c-.3.5-.9.8-1.5.8H0v1.7h2.4c1.2 0 2.3-.6 3-1.6v-.3l-1-1.6z"/></svg>