<svg xmlns="http://www.w3.org/2000/svg" fill="none" viewBox="0 0 149 24"><path fill="#BD3538" d="M20.5 20.5a12 12 0 01-16.1.8 10 10 0 01-1.7-1.7 11 11 0 01-1.4-2.2 12 12 0 1119.2 3z"/><path fill="#F6F6EC" fill-rule="evenodd" d="M17.3 2.3h-.2a.4.4 0 01-.2-.7l.3-.2.2-.1.7.4-.1.1-.7.5zm-2.2 1.5h.2l.7-.5a.4.4 0 10-.5-.7l-.4.3-.3.2a.4.4 0 00.3.7zM21.8 5a11 11 0 00-.5-.6h-.1A136.8 136.8 0 014.4 21.3l.6.5A137.5 137.5 0 0021.8 5zM10.6 18.7l-.6.5a.4.4 0 00.2.8l.3-.1.6-.5a.4.4 0 00-.5-.7zm1.3-1l.6-.6h.6a.4.4 0 010 .6l-.7.6a.4.4 0 01-.5-.6zm-3.2 2.6l-.7.4a.4.4 0 000 .6.4.4 0 00.5.1l.4-.3.3-.2a.4.4 0 00-.5-.6zM6 22.2a197.8 197.8 0 001-.5.4.4 0 01.1.7l-.3.2-.2.1a10 10 0 01-.7-.4l.1-.1zM20.7 8l-.4.7a.4.4 0 00.3.6l.3-.1V9l.5-.6a.4.4 0 10-.7-.5zm-7 8l.6-.6a.4.4 0 01.5.6 39.5 39.5 0 01-.8.7l-.3-.1a.4.4 0 010-.6zm5.5-6a68.2 68.2 0 01-.6.9l.2.3H19.4l.5-.7a.4.4 0 000-.6.4.4 0 00-.7 0zm3-4l.1-.1.4.7a37.2 37.2 0 01-.7.7h-.2a.4.4 0 01-.1-.6 38.5 38.5 0 00.5-.8zm-4.5 5.9a38.3 38.3 0 01-.7.9.4.4 0 00.7.2l.6-.6a.4.4 0 00-.6-.5zm-2.3 2.4l.6-.6c.2-.2.4-.2.6 0a.4.4 0 010 .5l-.6.6-.3.2a.4.4 0 01-.3-.7zm-6-5.6l.3-.1.6-.6a.4.4 0 00-.5-.6l-.6.6a.4.4 0 000 .6h.2zm2.1-1.8a.4.4 0 01-.6-.2c-.1-.1 0-.3 0-.4l.7-.6a.4.4 0 11.5.6l-.6.6zm-3.8 3.6c.1 0 .2 0 .3-.2l.6-.6a.4.4 0 00-.6-.5 77.7 77.7 0 00-.7.9l.1.2.3.2zm5.7-5.2h-.3-.3a.4.4 0 010-.7l.7-.5a.4.4 0 01.5.7l-.6.5zm-7.4 7c.1 0 .3 0 .3-.2l.6-.6a.4.4 0 10-.6-.5 75.3 75.3 0 00-.7.9c0 .1 0 .2.2.3H6zm-4.4 4.6c.1-.2.4-.3.6-.1.2 0 .2.3.1.5a38.8 38.8 0 00-.6.8l-.4-.7c0-.2.2-.4.3-.5zm1.3-.7l.4-.2a66.9 66.9 0 01.5-1 .4.4 0 00-.7-.2v.1l-.5.6a.4.4 0 00.3.7zM4.8 14a.4.4 0 11-.7-.5l.5-.6a.4.4 0 01.6 0 .4.4 0 010 .5l-.4.6zM19.6 2.8a13 13 0 00-.6-.6A136.3 136.3 0 002.2 19l.5.6h.1A135.8 135.8 0 0119.6 2.8zm.6.4a9.5 9.5 0 01.6.6l-17 17a9.5 9.5 0 01-.6-.6l17-17z" clip-rule="evenodd"/><path fill="#BD3538" d="M33.6 22.2V7.9h3.3l.3 2.7a5.9 5.9 0 015.3-3v3.9h-1c-.8 0-1.6 0-2.2.3a3 3 0 00-1.5 1.3c-.3.6-.5 1.5-.5 2.6v6.5h-3.7zM50 22.5c-1.3 0-2.3-.2-3-.5-.9-.4-1.5-1-1.8-1.6-.4-.7-.6-1.4-.6-2.2A4 4 0 0146 15c1-.8 2.6-1.2 4.7-1.2h3.6v-.4c0-1-.2-1.7-.8-2.1-.6-.5-1.2-.7-2-.7s-1.5.1-2 .5c-.6.4-1 .9-1 1.6h-3.7c.1-1 .5-2 1-2.7.7-.8 1.5-1.4 2.4-1.8 1-.4 2-.6 3.3-.6 2 0 3.6.5 4.8 1.5 1.1 1 1.7 2.4 1.7 4.3v8.8H55l-.4-2.3c-.4.8-1 1.4-1.7 1.9-.8.5-1.8.7-3 .7zm.8-2.8a3 3 0 002.4-1 5 5 0 001.1-2.6h-3c-1 0-1.8.1-2.2.5-.4.4-.6.8-.6 1.3 0 .6.2 1 .6 1.3.4.3 1 .5 1.7.5zM61.6 22.2V7.9H65l.3 2.4a5 5 0 011.9-2c.8-.5 1.8-.7 3-.7 1.7 0 3 .5 4 1.6s1.5 2.8 1.5 5v8H72v-7.7c0-1.3-.2-2.2-.7-2.8-.5-.7-1.3-1-2.3-1-1 0-2 .3-2.6 1-.6.8-1 1.8-1 3.1v7.4h-3.7zM85.7 22.5a6.7 6.7 0 01-6-3.6 8 8 0 01-1-3.9c0-1.4.3-2.7 1-3.8a6.8 6.8 0 016-3.6c1.1 0 2 .2 2.8.6a5 5 0 012 1.7V1.5h3.7v20.7h-3.3l-.4-2c-.5.6-1 1.1-1.8 1.6s-1.8.7-3 .7zm.8-3.2c1.2 0 2.2-.4 3-1.2.7-.8 1-1.8 1-3 0-1.3-.3-2.3-1-3.1a3.8 3.8 0 00-3-1.2c-1.2 0-2.1.4-2.9 1.2-.8.8-1.2 1.8-1.2 3 0 1.3.4 2.3 1.2 3.1.8.8 1.7 1.2 3 1.2zM105 22.5c-1.5 0-2.8-.3-4-1a7 7 0 01-2.6-2.6c-.6-1-1-2.4-1-3.8 0-1.5.4-2.8 1-4a7 7 0 012.7-2.6c1.1-.6 2.4-1 3.8-1 1.9 0 3.4.5 4.7 1.5 1.2 1 2 2.3 2.3 4h-3.8c-.2-.8-.6-1.3-1.2-1.7-.6-.4-1.2-.6-2-.6-1 0-1.9.4-2.6 1.2-.7.7-1 1.8-1 3.2 0 1.3.3 2.4 1 3.1.7.8 1.6 1.2 2.6 1.2.8 0 1.4-.2 2-.6.6-.4 1-1 1.2-1.6h3.8c-.3 1.6-1.1 2.9-2.3 3.9a7.2 7.2 0 01-4.7 1.4zM115.2 22.2V7.9h3.3l.3 2.7a5.9 5.9 0 015.3-3v3.9h-1c-.8 0-1.5 0-2.2.3a3 3 0 00-1.5 1.3c-.3.6-.5 1.5-.5 2.6v6.5h-3.7zM128.6 5.7c-.6 0-1.2-.2-1.6-.6a2 2 0 01-.7-1.5c0-.7.2-1.2.7-1.5.4-.4 1-.6 1.6-.6.7 0 1.2.2 1.7.6.4.3.6.8.6 1.5a2 2 0 01-.6 1.5c-.5.4-1 .6-1.7.6zm-1.8 16.5V7.9h3.7v14.3h-3.7zM141.3 22.5c-1.4 0-2.7-.3-3.8-1a7 7 0 01-2.7-2.6c-.6-1-1-2.4-1-3.8 0-1.5.4-2.8 1-4a7 7 0 012.7-2.6c1-.6 2.4-1 3.8-1 1.8 0 3.4.5 4.6 1.5 1.3 1 2 2.3 2.4 4h-3.9c-.2-.8-.6-1.3-1.1-1.7-.6-.4-1.2-.6-2-.6-1 0-1.9.4-2.6 1.2-.7.7-1 1.8-1 3.2 0 1.3.3 2.4 1 3.1.7.8 1.6 1.2 2.6 1.2.8 0 1.4-.2 2-.6.5-.4 1-1 1.1-1.6h4c-.4 1.6-1.2 2.9-2.5 3.9a7.2 7.2 0 01-4.6 1.4z"/></svg>